<?xml version="1.0" standalone="no"?>
<!DOCTYPE svg PUBLIC "-//W3C//DTD SVG 1.1//EN" "http://www.w3.org/Graphics/SVG/1.1/DTD/svg11.dtd">
<svg xmlns="http://www.w3.org/2000/svg" xmlns:xlink="http://www.w3.org/1999/xlink" width="375" zoomAndPan="magnify" viewBox="0 0 375 374.999991" height="375" preserveAspectRatio="xMidYMid meet" version="1.2"><defs><clipPath id="5c3848df63"><path d="M 37.5 44 L 337.5 44 L 337.5 337.5 L 37.5 337.5 Z M 37.5 44 "/></clipPath></defs><g id="2396a13ef4"><g clip-rule="nonzero" clip-path="url(#5c3848df63)"><path style=" stroke:none;fill-rule:evenodd;fill:#000000;fill-opacity:1;" d="M 92.320312 47.976562 C 88.21875 56.925781 86.140625 66.496094 86.140625 76.457031 C 86.140625 84.015625 87.234375 90.507812 89.808594 98.261719 L 91.78125 104.195312 L 90.542969 108.140625 C 88.882812 113.445312 88.445312 122.75 89.621094 127.753906 C 90.78125 132.699219 92.390625 136.835938 94.554688 140.425781 C 96.3125 143.347656 96.382812 143.683594 96.390625 149.171875 C 96.414062 162.664062 102.757812 174.367188 114.351562 182.308594 C 117.371094 184.375 117.644531 184.753906 119.070312 188.8125 C 124.246094 203.546875 139.128906 214.824219 157.636719 218.03125 C 164.804688 219.273438 178.699219 218.84375 186.53125 217.144531 C 189.699219 216.453125 192.527344 215.679688 192.8125 215.421875 C 193.105469 215.15625 189.195312 214.949219 183.925781 214.949219 C 165.617188 214.949219 151.328125 211.851562 140.175781 205.46875 C 135.585938 202.839844 129.714844 198.171875 126.636719 194.703125 C 123.929688 191.648438 120.433594 186.511719 120.808594 186.132812 C 120.960938 185.984375 122.6875 186.464844 124.644531 187.203125 C 131.761719 189.878906 142.867188 190.984375 151.835938 189.90625 C 155.191406 189.503906 155.699219 188.617188 152.574219 188.617188 C 148.804688 188.617188 138.113281 186.535156 132.753906 184.761719 C 115.980469 179.199219 103.972656 167.691406 99.371094 152.765625 C 97.222656 145.800781 97.554688 145.628906 103.058594 150.839844 C 105.722656 153.363281 109.871094 156.605469 112.277344 158.046875 C 117.476562 161.15625 126.070312 164.347656 130.453125 164.792969 L 133.59375 165.113281 L 128.058594 162.402344 C 125.015625 160.910156 121.1875 158.835938 119.554688 157.789062 C 111.867188 152.867188 103.246094 144.136719 99.273438 137.246094 C 94.386719 128.769531 91.515625 117.019531 92.46875 109.398438 L 92.855469 106.3125 L 96.683594 112.195312 C 102.34375 120.890625 110.292969 128.601562 118.507812 133.367188 C 120.960938 134.789062 125.089844 136.664062 125.089844 136.355469 C 125.089844 136.265625 122.84375 134.351562 120.097656 132.097656 C 109.164062 123.128906 99.855469 109.691406 95.484375 96.566406 C 92.636719 88.015625 91.921875 83.34375 91.9375 73.414062 C 91.953125 64.65625 92.945312 55.820312 93.8125 56.769531 C 94.042969 57.023438 94.917969 59.332031 95.753906 61.894531 C 101.492188 79.507812 114.511719 96.511719 132.496094 109.882812 C 140.414062 115.765625 147.648438 120.21875 161.023438 127.4375 C 185.753906 140.78125 194.015625 145.890625 202.992188 153.398438 C 209.117188 158.523438 216.1875 165.753906 221.035156 171.855469 C 224.703125 176.472656 234.257812 190.617188 234.257812 191.429688 C 234.257812 191.691406 234.496094 191.910156 234.785156 191.910156 C 235.457031 191.910156 234.519531 189.289062 231.140625 181.761719 C 227.660156 173.996094 224.941406 169.382812 219.742188 162.414062 C 211.628906 151.546875 203.160156 143.625 191.195312 135.714844 C 185.492188 131.941406 181.476562 129.640625 160.476562 118.113281 C 142.523438 108.253906 132.363281 101.078125 122.171875 91.050781 C 109.386719 78.472656 101.0625 65.699219 96.558594 51.746094 C 95.585938 48.730469 94.621094 45.796875 94.417969 45.230469 C 94.128906 44.433594 93.660156 45.050781 92.320312 47.976562 M 189.710938 49.535156 C 180.703125 56.960938 175.699219 67.050781 174.695312 79.824219 L 174.316406 84.660156 L 171.621094 87.535156 C 166.871094 92.601562 164.097656 100.488281 164.816406 106.878906 C 165.25 110.75 166.640625 114.660156 168.273438 116.597656 L 169.558594 118.125 L 169.128906 114.832031 C 168.394531 109.164062 168.765625 101.929688 170.023438 97.34375 C 171.25 92.871094 173.605469 87.679688 174.410156 87.679688 C 174.671875 87.679688 175.058594 89.050781 175.265625 90.726562 C 175.746094 94.574219 177.765625 100.542969 180.222656 105.375 C 182.378906 109.625 185.023438 113.320312 185.304688 112.480469 C 185.410156 112.171875 184.507812 108.992188 183.304688 105.421875 C 177.734375 88.875 178.226562 75.582031 184.914062 62.078125 C 188.992188 53.847656 189.058594 53.867188 189.441406 63.402344 C 189.800781 72.402344 190.796875 77.316406 194 85.898438 C 197.773438 96.007812 201.082031 101.589844 211.941406 116.136719 C 216.304688 121.984375 220.996094 128.894531 222.367188 131.496094 C 226.859375 140.03125 229.148438 148.5625 229.703125 158.828125 C 229.984375 164.050781 229.898438 165.183594 229.105469 166.386719 L 228.179688 167.804688 L 229.710938 167.4375 C 234.734375 166.226562 238.976562 162.492188 247.699219 151.589844 C 258.617188 137.9375 263.507812 134.28125 271.414062 133.855469 C 279.066406 133.441406 284.265625 136.734375 288.558594 144.714844 C 289.882812 147.167969 292.398438 150.746094 294.15625 152.660156 C 295.910156 154.578125 297.347656 156.257812 297.347656 156.390625 C 297.347656 156.527344 296.171875 156.527344 294.742188 156.390625 C 291.253906 156.058594 286.1875 157.050781 282.722656 158.742188 C 278.660156 160.722656 275.597656 163.957031 273.40625 168.574219 C 270.390625 174.917969 269.433594 180.84375 268.835938 196.847656 C 268.257812 212.265625 267.75 216.683594 265.761719 223.542969 C 261.339844 238.800781 251.226562 250.121094 235.214844 257.742188 C 227.644531 261.34375 223.933594 262.523438 205.117188 267.285156 C 190.019531 271.109375 178.15625 274.734375 176.960938 275.886719 C 176.296875 276.527344 176.859375 276.515625 179.675781 275.832031 C 181.347656 275.425781 203.523438 272.550781 204.980469 272.550781 C 205.132812 272.550781 203.152344 274.542969 200.582031 276.976562 C 194.78125 282.46875 191.761719 286.542969 185.992188 296.6875 C 180.738281 305.921875 178.699219 308.84375 175.363281 311.917969 C 171.816406 315.191406 169.820312 316.039062 165.027344 316.324219 C 158.90625 316.6875 158.445312 316.332031 161.695312 313.761719 C 163.175781 312.59375 165.558594 310.308594 166.992188 308.6875 C 169.660156 305.667969 175.5625 297.199219 175.5625 296.390625 C 175.5625 296.140625 173.277344 298.171875 170.488281 300.90625 C 162.289062 308.933594 155.613281 312.597656 149.191406 312.597656 C 145.601562 312.597656 142.90625 311.707031 141.40625 310.019531 C 140.46875 308.960938 140.503906 308.917969 142.777344 308.234375 C 146.601562 307.09375 150.335938 304.980469 154.988281 301.335938 C 159.964844 297.4375 165.011719 292.410156 162.121094 294.234375 C 151.714844 300.800781 144.425781 303.507812 138.03125 303.1875 C 134.5625 303.011719 133.582031 302.730469 131.613281 301.34375 C 128.71875 299.300781 128.410156 298.464844 130.402344 298.054688 C 135.667969 296.96875 139.125 295.804688 143.21875 293.75 C 148.449219 291.121094 154.414062 287.425781 154.035156 287.050781 C 153.898438 286.914062 152.449219 287.390625 150.820312 288.113281 C 144.300781 290.996094 138.722656 292.402344 132.769531 292.660156 C 129.601562 292.800781 126.695312 292.695312 126.3125 292.429688 C 125.925781 292.160156 125.460938 290.675781 125.277344 289.125 C 124.886719 285.84375 123.96875 286.445312 134.527344 283.074219 C 153.25 277.09375 169.605469 265.546875 181.234375 250.097656 C 187.914062 241.226562 193.160156 229.5 193.890625 221.808594 L 194.207031 218.515625 L 192.941406 222.355469 C 187.777344 238.066406 174.078125 254.746094 157.457031 265.554688 C 148.515625 271.371094 138.066406 276.003906 126.839844 279.132812 C 123.722656 280 120.820312 281.003906 120.390625 281.359375 C 119.40625 282.175781 119.316406 289.285156 120.25 292.40625 C 120.605469 293.589844 121.601562 295.152344 122.464844 295.878906 C 123.359375 296.632812 124.363281 298.285156 124.792969 299.714844 C 125.207031 301.09375 126.21875 303.101562 127.039062 304.179688 C 128.460938 306.042969 133.164062 308.742188 135.015625 308.753906 C 135.496094 308.753906 136.144531 309.320312 136.457031 310.007812 C 137.527344 312.359375 140.046875 314.847656 142.855469 316.324219 C 145.277344 317.597656 146.34375 317.804688 150.601562 317.839844 C 154.878906 317.871094 155.976562 318.089844 158.828125 319.464844 C 161.527344 320.769531 162.816406 321.050781 165.964844 321.03125 C 174.199219 320.976562 180.628906 315.957031 185.691406 305.621094 C 193.464844 289.757812 195.554688 285.789062 197.773438 282.675781 C 201.242188 277.816406 205.460938 273.339844 207.230469 272.640625 C 208.066406 272.3125 212.207031 271.265625 216.429688 270.316406 C 232.8125 266.640625 241.234375 263.441406 250.167969 257.492188 C 260.375 250.699219 268.246094 240.605469 272.21875 229.214844 C 275.082031 221.015625 275.488281 217.390625 275.921875 196.296875 C 276.300781 177.921875 276.433594 175.972656 277.519531 172.625 C 280.769531 162.628906 287.273438 158.375 297.890625 159.300781 C 301.09375 159.582031 302.285156 159.511719 302.285156 159.042969 C 302.285156 157.5625 299.957031 154.046875 296.519531 150.335938 C 293.503906 147.074219 292.660156 145.742188 291.792969 142.851562 C 289.023438 133.617188 282.519531 128.820312 272.761719 128.820312 C 262.410156 128.820312 257.351562 132.554688 246.027344 148.550781 C 240.226562 156.742188 235.113281 162.59375 232.570312 163.953125 C 231.535156 164.507812 231.398438 164.480469 231.675781 163.757812 C 231.855469 163.292969 232.277344 160.40625 232.613281 157.34375 C 233.921875 145.457031 230.59375 131.816406 223.875 121.53125 C 222.453125 119.355469 218.589844 113.996094 215.292969 109.621094 C 205.597656 96.765625 202.667969 91.890625 198.34375 81.441406 C 194.960938 73.269531 193.613281 66.660156 193.203125 56.207031 L 192.839844 46.957031 Z M 273.121094 142.789062 C 271.8125 145.65625 275.605469 148.292969 277.832031 146.0625 C 278.917969 144.976562 278.917969 144.199219 277.839844 142.660156 C 276.625 140.921875 273.9375 140.996094 273.121094 142.789062 M -152.898438 363.203125 C -157.914062 375.378906 -166.191406 395.042969 -169.066406 401.613281 C -172.46875 409.390625 -173.542969 410.765625 -176.804688 411.558594 C -177.667969 411.765625 -178.253906 412.226562 -178.128906 412.597656 C -177.964844 413.074219 -176.277344 413.226562 -172.191406 413.136719 C -169.050781 413.066406 -165.800781 413.003906 -164.972656 412.996094 C -162.957031 412.984375 -163.046875 412.070312 -165.109375 411.617188 C -167.300781 411.136719 -168.425781 409.484375 -167.855469 407.59375 C -167.613281 406.789062 -166.546875 403.910156 -165.484375 401.195312 L -163.550781 396.257812 L -141.792969 395.96875 L -139.464844 401.886719 C -138.179688 405.136719 -137.132812 408.1875 -137.132812 408.664062 C -137.132812 409.808594 -138.683594 411.109375 -140.597656 411.5625 C -141.464844 411.769531 -142.046875 412.226562 -141.921875 412.597656 C -141.761719 413.078125 -139.21875 413.277344 -132.695312 413.324219 C -127.742188 413.355469 -123.257812 413.277344 -122.730469 413.148438 C -121.101562 412.75 -121.664062 411.960938 -124.027344 411.324219 C -125.269531 410.992188 -126.824219 410.179688 -127.480469 409.523438 C -128.625 408.375 -134.726562 394.992188 -144.777344 371.570312 C -149.800781 359.871094 -150.117188 359.226562 -150.8125 359.226562 C -151.058594 359.226562 -151.996094 361.015625 -152.898438 363.203125 M 135.238281 360.265625 C 130.34375 361.691406 127.410156 363.402344 123.980469 366.839844 C 118.328125 372.5 115.765625 378.777344 115.765625 386.941406 C 115.765625 394.882812 118.132812 401.074219 123.054688 405.988281 C 128.492188 411.417969 135.492188 414.085938 144.292969 414.085938 C 151.65625 414.085938 157.097656 412.449219 163.769531 408.234375 L 166.234375 406.679688 L 166.234375 399.996094 C 166.234375 392.097656 166.628906 390.710938 169.054688 390.082031 C 170.027344 389.828125 170.921875 389.324219 171.042969 388.960938 C 171.210938 388.464844 169.125 388.300781 162.667969 388.300781 C 156.210938 388.300781 154.128906 388.464844 154.296875 388.960938 C 154.414062 389.324219 155.257812 389.816406 156.167969 390.050781 C 159.390625 390.886719 159.703125 391.769531 159.53125 399.609375 L 159.378906 406.679688 L 155.015625 408.875 C 150.792969 411 150.480469 411.070312 145.140625 411.070312 C 140.246094 411.070312 139.285156 410.902344 136.574219 409.566406 C 130.425781 406.546875 126.429688 401.085938 124.824219 393.503906 C 122.621094 383.097656 125.035156 372.878906 130.992188 367.386719 C 134.894531 363.785156 138.808594 362.242188 144.015625 362.253906 C 151.652344 362.265625 157.699219 365.464844 161.144531 371.316406 C 161.894531 372.59375 162.652344 373.867188 163.410156 375.136719 C 164.457031 376.855469 164.652344 375.042969 163.980469 369.894531 L 163.28125 364.558594 L 159.957031 363.003906 C 152.152344 359.347656 142.175781 358.246094 135.238281 360.265625 M 268.304688 361.558594 C 267.144531 364.246094 259.351562 382.816406 253.167969 397.628906 C 248.683594 408.363281 247.167969 410.648438 244.109375 411.273438 C 242.085938 411.6875 241.367188 412.734375 242.878906 413.066406 C 244.707031 413.46875 257.300781 412.898438 257.300781 412.414062 C 257.300781 412.148438 256.328125 411.671875 255.136719 411.351562 C 251.945312 410.492188 251.886719 409.460938 254.640625 402.25 L 257.027344 396 L 267.859375 395.992188 C 273.820312 395.988281 278.695312 396.054688 278.695312 396.144531 C 278.695312 396.230469 279.695312 398.75 280.914062 401.738281 C 283.769531 408.722656 283.695312 410.242188 280.453125 411.265625 C 277.539062 412.1875 277.730469 413.273438 280.796875 413.238281 C 294.578125 413.085938 298.445312 412.917969 298.445312 412.460938 C 298.445312 412.171875 297.503906 411.679688 296.351562 411.371094 C 295.199219 411.058594 293.707031 410.21875 293.03125 409.5 C 291.957031 408.355469 279.863281 381.773438 272.839844 365.125 C 271.472656 361.882812 270.117188 359.226562 269.832031 359.226562 C 269.542969 359.226562 268.855469 360.277344 268.304688 361.558594 M 575.203125 359.761719 C 568.914062 361.378906 565.296875 365.414062 564.675781 371.503906 C 564.3125 375.027344 565.148438 378.179688 567.183594 380.988281 C 568.785156 383.203125 571.300781 385.21875 580.390625 391.558594 C 586.679688 395.945312 588.214844 397.855469 588.5 401.644531 C 588.792969 405.574219 587.445312 407.882812 583.71875 409.835938 C 579.316406 412.140625 574.707031 411.761719 570.667969 408.761719 C 568.421875 407.09375 567.292969 405.386719 566.089844 401.828125 C 564.460938 397.023438 563.90625 397.933594 564.078125 405.121094 C 564.210938 410.679688 564.359375 411.597656 565.097656 411.476562 C 565.578125 411.402344 567.429688 411.851562 569.214844 412.480469 C 571 413.113281 574.464844 413.761719 576.917969 413.929688 C 584.574219 414.449219 589.988281 411.835938 593.449219 405.949219 C 594.707031 403.804688 594.953125 402.761719 594.9375 399.546875 C 594.914062 393.109375 592.757812 390.339844 582.316406 383.351562 C 574.089844 377.84375 571.988281 375.941406 571.070312 373.152344 C 570.28125 370.769531 570.652344 367.382812 571.90625 365.46875 C 572.972656 363.839844 576.707031 362 578.980469 361.984375 C 583.636719 361.945312 588.785156 365.554688 589.5 369.351562 C 589.703125 370.429688 590.105469 371.457031 590.398438 371.636719 C 591.550781 372.351562 591.855469 370.820312 591.492188 366.125 L 591.113281 361.222656 L 586.175781 360.257812 C 580.886719 359.226562 577.832031 359.085938 575.203125 359.761719 M 51.832031 360.359375 C 51.632812 360.683594 51.558594 360.992188 51.664062 361.046875 C 55.371094 362.988281 56.523438 363.867188 57.890625 365.789062 L 59.535156 368.101562 L 59.535156 388.605469 C 59.535156 411.320312 59.664062 410.515625 55.933594 411.277344 C 54.941406 411.480469 54.03125 411.949219 53.90625 412.316406 C 53.738281 412.824219 55.5 412.988281 61.136719 412.988281 C 65.234375 412.988281 68.585938 412.78125 68.585938 412.527344 C 68.585938 412.273438 67.628906 411.777344 66.457031 411.425781 C 62.714844 410.304688 62.832031 410.96875 62.792969 390.402344 C 62.777344 380.183594 62.921875 371.890625 63.113281 371.972656 C 63.308594 372.050781 66.03125 375.082031 69.164062 378.703125 C 72.300781 382.324219 77.710938 388.46875 81.191406 392.355469 C 84.667969 396.246094 90.292969 402.664062 93.695312 406.621094 C 97.09375 410.574219 100.117188 413.894531 100.414062 413.992188 C 100.761719 414.113281 100.953125 405.339844 100.953125 389.265625 L 100.953125 364.355469 L 102.1875 363.203125 C 102.867188 362.570312 104.101562 361.882812 104.929688 361.675781 C 108.296875 360.84375 106.039062 360.324219 99.035156 360.324219 C 94.960938 360.324219 91.628906 360.53125 91.628906 360.785156 C 91.628906 361.039062 92.605469 361.542969 93.800781 361.898438 C 97.699219 363.066406 97.664062 362.867188 97.652344 382.253906 L 97.640625 399.546875 L 94.496094 396.25 C 92.769531 394.4375 84.8125 385.488281 76.816406 376.367188 L 62.277344 359.785156 L 57.238281 359.78125 C 54.253906 359.777344 52.046875 360.015625 51.832031 360.359375 M 352.753906 365.261719 C 352.753906 369.574219 352.917969 370.746094 353.515625 370.746094 C 353.996094 370.746094 354.410156 369.84375 354.644531 368.292969 C 355.242188 364.308594 356.597656 363.617188 363.800781 363.617188 L 369.761719 363.617188 L 369.761719 409.636719 L 368.539062 410.488281 C 367.871094 410.957031 366.636719 411.34375 365.796875 411.34375 C 364.808594 411.34375 364.273438 411.632812 364.273438 412.164062 C 364.273438 412.863281 365.675781 412.988281 373.601562 412.988281 C 379.15625 412.988281 382.925781 412.777344 382.925781 412.464844 C 382.925781 412.175781 382.078125 411.78125 381.042969 411.585938 C 377.675781 410.957031 377.191406 409.863281 376.964844 402.371094 C 376.855469 398.707031 376.945312 388.488281 377.164062 379.660156 L 377.566406 363.617188 L 382.578125 363.621094 C 390.75 363.625 392.5625 364.542969 393.316406 369.058594 C 393.488281 370.089844 393.917969 371.027344 394.273438 371.148438 C 394.730469 371.300781 394.96875 369.828125 395.09375 366.105469 C 395.191406 363.214844 395.1875 360.605469 395.085938 360.3125 C 394.972656 359.976562 387.066406 359.777344 373.828125 359.777344 L 352.753906 359.777344 Z M -116.285156 360.851562 C -116.285156 361.140625 -115.300781 361.644531 -114.101562 361.96875 C -112.898438 362.292969 -111.648438 363.050781 -111.324219 363.660156 C -110.949219 364.359375 -110.621094 372.527344 -110.425781 386.125 C -110.085938 409.410156 -110.195312 410.527344 -112.925781 411.121094 C -115.457031 411.671875 -115.832031 411.878906 -115.597656 412.578125 C -115.421875 413.101562 -112.203125 413.261719 -101.976562 413.25 C -89.507812 413.242188 -88.332031 413.15625 -84.957031 411.996094 C -77.925781 409.589844 -74.363281 405.046875 -74.335938 398.449219 C -74.3125 391.824219 -77.796875 387.007812 -83.78125 385.40625 C -85.0625 385.0625 -86.113281 384.648438 -86.113281 384.484375 C -86.113281 384.320312 -85.070312 383.683594 -83.792969 383.066406 C -82.453125 382.421875 -80.777344 380.960938 -79.824219 379.605469 C -78.425781 377.617188 -78.152344 376.660156 -78.011719 373.320312 C -77.871094 370.011719 -78.046875 369.027344 -79.101562 367.207031 C -80.824219 364.238281 -84.398438 361.644531 -87.761719 360.921875 C -91.269531 360.171875 -116.285156 360.109375 -116.285156 360.851562 M -64.71875 360.839844 C -64.71875 361.136719 -63.734375 361.644531 -62.535156 361.96875 C -61.332031 362.292969 -60.097656 363.023438 -59.789062 363.597656 C -59.4375 364.257812 -59.234375 372.921875 -59.234375 387.082031 C -59.234375 411.910156 -59.105469 411.015625 -62.757812 411.433594 C -64.550781 411.636719 -65.226562 412.675781 -63.898438 413.183594 C -62.667969 413.65625 -46.066406 412.90625 -46.066406 412.378906 C -46.066406 412.136719 -46.933594 411.777344 -47.996094 411.578125 C -49.089844 411.375 -50.394531 410.621094 -51.015625 409.835938 C -52.058594 408.507812 -52.101562 407.558594 -52.101562 386.65625 C -52.101562 365.605469 -52.0625 364.8125 -50.992188 363.449219 C -50.296875 362.566406 -49.21875 361.972656 -48.109375 361.867188 C -47.136719 361.773438 -46.402344 361.449219 -46.476562 361.148438 C -46.660156 360.410156 -64.71875 360.101562 -64.71875 360.839844 M -36.605469 361.011719 C -36.484375 361.386719 -35.726562 361.773438 -34.929688 361.867188 C -34.128906 361.964844 -32.972656 362.675781 -32.363281 363.449219 C -31.292969 364.8125 -31.253906 365.613281 -31.253906 386.898438 C -31.253906 410.761719 -31.214844 410.4375 -34.273438 411.257812 C -35.179688 411.5 -35.996094 412.109375 -36.09375 412.613281 C -36.257812 413.457031 -35.128906 413.503906 -21.832031 413.203125 C -12.515625 412.992188 -6.140625 412.597656 -3.863281 412.09375 C 3.886719 410.375 10.132812 405.859375 13.226562 399.734375 C 21.515625 383.308594 13.351562 364.742188 -3.753906 361.113281 C -8.707031 360.066406 -36.945312 359.976562 -36.605469 361.011719 M 26.347656 360.886719 C 26.347656 361.195312 27.074219 361.59375 27.964844 361.773438 C 28.855469 361.949219 30.027344 362.585938 30.570312 363.1875 C 31.480469 364.191406 31.570312 365.957031 31.71875 385.328125 C 31.898438 408.550781 31.703125 410.5625 29.207031 411.109375 C 26.75 411.648438 26.347656 411.832031 26.347656 412.421875 C 26.347656 412.789062 29.546875 412.988281 35.398438 412.988281 C 40.375 412.988281 44.449219 412.78125 44.449219 412.527344 C 44.449219 412.273438 43.464844 411.769531 42.265625 411.410156 C 41.0625 411.050781 39.828125 410.285156 39.519531 409.714844 C 39.167969 409.058594 38.964844 400.519531 38.964844 386.65625 C 38.964844 372.792969 39.167969 364.253906 39.519531 363.597656 C 39.828125 363.027344 41.0625 362.261719 42.265625 361.902344 C 43.464844 361.542969 44.449219 361.039062 44.449219 360.785156 C 44.449219 360.53125 40.375 360.324219 35.398438 360.324219 C 29.582031 360.324219 26.347656 360.523438 26.347656 360.886719 M 203.65625 360.949219 C 203.789062 361.34375 204.730469 361.839844 205.746094 362.046875 C 206.765625 362.253906 207.878906 362.808594 208.222656 363.277344 C 208.941406 364.261719 209.84375 404.234375 209.238281 408.042969 C 208.855469 410.417969 208.289062 410.894531 205.007812 411.597656 C 203.179688 411.992188 203.316406 413.175781 205.226562 413.457031 C 207.503906 413.792969 222.191406 412.898438 222.191406 412.425781 C 222.191406 412.179688 221.386719 411.808594 220.40625 411.597656 C 216.511719 410.769531 216.703125 412.082031 216.703125 386.570312 L 216.703125 363.617188 L 222.207031 363.617188 C 228.652344 363.617188 230.613281 364.265625 233.03125 367.195312 C 237.5625 372.695312 236.144531 381.25 230.113281 384.785156 C 228.152344 385.933594 226.6875 386.292969 222.996094 386.519531 C 219.046875 386.769531 218.351562 386.953125 218.351562 387.773438 C 218.351562 388.988281 219.402344 389.386719 223.664062 389.785156 C 230.59375 390.429688 237.800781 387.875 240.894531 383.675781 C 246.527344 376.023438 243.855469 365.785156 235.214844 361.910156 C 232.476562 360.679688 231.65625 360.609375 217.878906 360.425781 C 206.125 360.265625 203.460938 360.363281 203.65625 360.949219 M 304.476562 360.777344 C 304.476562 361.074219 305.265625 361.589844 306.226562 361.921875 C 310.1875 363.304688 309.964844 361.808594 309.964844 386.949219 C 309.964844 411.800781 310.136719 410.5625 306.574219 411.289062 C 305.617188 411.484375 304.734375 411.949219 304.609375 412.316406 C 304.441406 412.828125 306.609375 412.988281 313.757812 412.988281 C 318.914062 412.988281 323.128906 412.78125 323.128906 412.527344 C 323.128906 412.273438 322.144531 411.769531 320.945312 411.410156 C 319.742188 411.050781 318.507812 410.285156 318.203125 409.714844 C 317.882812 409.117188 317.644531 404.335938 317.644531 398.488281 C 317.644531 387.402344 317.53125 387.746094 320.816406 388.890625 C 321.941406 389.28125 323.574219 390.902344 325.664062 393.691406 C 327.398438 396.007812 331.507812 401.296875 334.792969 405.445312 L 340.765625 412.988281 L 346.484375 412.988281 C 352.320312 412.988281 353.632812 412.449219 350.394531 411.378906 C 347.957031 410.574219 344.683594 407.066406 337.828125 397.902344 C 334.667969 393.679688 331.671875 389.882812 331.171875 389.46875 C 329.835938 388.363281 330.046875 387.917969 332.085938 387.535156 C 334.738281 387.035156 338.75 384.304688 340.621094 381.71875 C 344.4375 376.449219 343.695312 368.796875 338.929688 364.320312 C 338.226562 363.660156 336.421875 362.554688 334.917969 361.859375 C 332.332031 360.667969 331.421875 360.589844 318.328125 360.417969 C 309.546875 360.308594 304.476562 360.4375 304.476562 360.777344 M 398.835938 360.761719 C 398.835938 361.003906 399.6875 361.511719 400.730469 361.886719 C 401.777344 362.265625 403.625 363.707031 404.847656 365.09375 L 407.0625 367.609375 L 407.0625 388.042969 C 407.0625 410.851562 407.125 410.472656 403.25 411.265625 C 402.226562 411.472656 401.285156 411.949219 401.160156 412.316406 C 400.992188 412.824219 402.824219 412.988281 408.710938 412.988281 C 414.59375 412.988281 416.425781 412.824219 416.257812 412.316406 C 416.132812 411.949219 415.191406 411.472656 414.167969 411.265625 C 410.332031 410.480469 410.355469 410.609375 410.355469 390.160156 C 410.355469 380.085938 410.453125 371.84375 410.574219 371.84375 C 410.695312 371.84375 413.71875 375.113281 417.292969 379.113281 C 420.871094 383.109375 427.007812 389.957031 430.929688 394.335938 C 434.855469 398.710938 440.238281 404.820312 442.890625 407.914062 C 445.546875 411.007812 447.945312 413.539062 448.222656 413.539062 C 448.515625 413.539062 448.785156 403.335938 448.875 388.90625 C 449.019531 365.660156 449.089844 364.214844 450.066406 363.136719 C 450.632812 362.507812 451.929688 361.835938 452.945312 361.644531 C 456.941406 360.894531 454.421875 360.324219 447.109375 360.324219 C 439.289062 360.324219 437.496094 360.859375 441.605469 361.964844 C 445.496094 363.011719 445.46875 362.855469 445.441406 382.253906 L 445.421875 399.546875 L 442.890625 396.804688 C 438.53125 392.078125 415.089844 365.664062 412.828125 362.929688 L 410.671875 360.324219 L 404.753906 360.324219 C 401.496094 360.324219 398.835938 360.523438 398.835938 360.761719 M 463.019531 360.851562 C 463.019531 361.140625 464.003906 361.644531 465.203125 361.96875 C 466.40625 362.292969 467.632812 363.015625 467.933594 363.574219 C 468.265625 364.195312 468.496094 373.300781 468.523438 386.953125 C 468.574219 411.492188 468.699219 410.554688 465.246094 411.261719 C 464.292969 411.457031 463.523438 411.863281 463.539062 412.164062 C 463.558594 412.519531 469.941406 412.714844 481.519531 412.714844 L 499.472656 412.714844 L 500.949219 407.503906 C 501.761719 404.636719 502.445312 401.859375 502.46875 401.332031 C 502.550781 399.695312 501.585938 400.265625 500.148438 402.703125 C 496.675781 408.59375 494.105469 409.695312 483.882812 409.695312 L 476.183594 409.695312 L 476.183594 387.753906 L 482.78125 387.753906 C 489.359375 387.753906 489.378906 387.75 489.914062 386.347656 C 490.207031 385.574219 490.449219 384.832031 490.449219 384.699219 C 490.449219 384.570312 487.238281 384.460938 483.316406 384.460938 L 476.183594 384.460938 L 476.183594 362.972656 L 485.011719 363.15625 L 493.835938 363.339844 L 495.160156 364.882812 C 495.886719 365.726562 496.488281 366.960938 496.492188 367.625 C 496.503906 369.230469 497.3125 370.429688 498.066406 369.960938 C 498.4375 369.734375 498.675781 367.761719 498.675781 364.957031 L 498.675781 360.324219 L 480.847656 360.324219 C 469.804688 360.324219 463.019531 360.523438 463.019531 360.851562 M 510.199219 360.746094 C 510.199219 361.023438 511.179688 361.542969 512.382812 361.902344 C 513.585938 362.261719 514.820312 363.027344 515.125 363.597656 C 515.476562 364.257812 515.683594 372.9375 515.683594 387.101562 C 515.683594 411.816406 515.863281 410.558594 512.25 411.296875 C 509.519531 411.855469 509.921875 413.269531 512.804688 413.238281 C 524.894531 413.109375 528.847656 412.917969 528.847656 412.460938 C 528.847656 412.171875 527.867188 411.667969 526.664062 411.34375 C 525.460938 411.023438 524.226562 410.289062 523.921875 409.714844 C 523.601562 409.113281 523.363281 404.34375 523.363281 398.488281 L 523.363281 388.300781 L 524.933594 388.300781 C 527.296875 388.300781 528.960938 389.929688 535.289062 398.402344 C 538.464844 402.652344 542.308594 407.675781 543.828125 409.558594 L 546.59375 412.988281 L 552.261719 412.988281 C 557.632812 412.988281 559.425781 412.421875 556.691406 411.589844 C 556.011719 411.382812 554.675781 410.632812 553.722656 409.917969 C 552.015625 408.640625 537.078125 389.335938 537.078125 388.40625 C 537.078125 388.144531 538.007812 387.648438 539.140625 387.308594 C 544.757812 385.625 548.734375 380.230469 548.734375 374.289062 C 548.734375 368.414062 546.050781 364.386719 540.371094 361.746094 C 538.109375 360.695312 536.734375 360.585938 524.050781 360.421875 C 515.878906 360.316406 510.199219 360.449219 510.199219 360.746094 M -23.46875 363.761719 C -24.03125 364.441406 -24.097656 369.21875 -23.785156 387.503906 L -23.398438 410.394531 L -15.945312 410.09375 C -11.539062 409.914062 -7.367188 409.4375 -5.746094 408.929688 C 2.757812 406.257812 7.570312 398.972656 8.109375 387.945312 C 8.335938 383.328125 8.1875 381.730469 7.238281 378.605469 C 5.132812 371.679688 0.140625 366.179688 -5.632812 364.421875 C -7.234375 363.933594 -11.621094 363.410156 -15.628906 363.234375 C -21.667969 362.964844 -22.875 363.046875 -23.46875 363.761719 M -103.121094 373.441406 L -103.121094 383.363281 L -98.699219 383.363281 C -92.832031 383.363281 -89.902344 382.570312 -87.890625 380.433594 C -84.820312 377.171875 -84.1875 372.597656 -86.25 368.5625 C -88.320312 364.511719 -89.613281 363.917969 -96.847656 363.707031 L -103.121094 363.523438 Z M 317.644531 374.585938 L 317.644531 385.558594 L 320.847656 385.558594 C 329.511719 385.558594 334.652344 381.394531 334.652344 374.371094 C 334.652344 370.761719 333.976562 368.808594 332.007812 366.703125 C 329.785156 364.324219 327.5625 363.617188 322.324219 363.617188 L 317.644531 363.617188 Z M 523.363281 374.585938 L 523.363281 385.558594 L 526.828125 385.558594 C 532.039062 385.558594 535.546875 384.320312 537.8125 381.675781 C 542.453125 376.25 541.265625 367.785156 535.449219 364.851562 C 533.46875 363.851562 532.09375 363.617188 528.183594 363.617188 L 523.363281 363.617188 Z M -154.453125 375.546875 C -155.835938 378.867188 -157.230469 382.179688 -158.628906 385.492188 C -160.082031 388.921875 -161.269531 391.945312 -161.269531 392.210938 C -161.269531 392.476562 -157.320312 392.691406 -152.492188 392.691406 C -147.664062 392.691406 -143.714844 392.503906 -143.714844 392.28125 C -143.710938 391.488281 -152.222656 371.847656 -152.566406 371.847656 C -152.761719 371.84375 -153.609375 373.511719 -154.453125 375.546875 M 266.359375 374.726562 C 265.789062 376.308594 263.996094 380.691406 262.371094 384.460938 L 259.121094 392.003906 C 258.894531 392.539062 260.859375 392.691406 267.9375 392.691406 C 272.949219 392.691406 277.050781 392.625 277.050781 392.542969 C 277.050781 392.460938 275.433594 388.695312 273.457031 384.175781 C 271.480469 379.65625 269.476562 375.035156 269.007812 373.902344 C 268.539062 372.769531 267.980469 371.84375 267.773438 371.84375 C 267.5625 371.84375 266.925781 373.140625 266.359375 374.726562 M 493.191406 379.800781 C 493.191406 380.25 493.4375 380.621094 493.738281 380.621094 C 494.042969 380.621094 494.289062 380.25 494.289062 379.800781 C 494.289062 379.347656 494.042969 378.976562 493.738281 378.976562 C 493.4375 378.976562 493.191406 379.347656 493.191406 379.800781 M -103.121094 398.449219 L -103.121094 410.246094 L -98.484375 410.246094 C -91.417969 410.246094 -88.460938 409.429688 -85.765625 406.742188 C -82.375 403.363281 -81.273438 397.792969 -83.117188 393.378906 C -84.296875 390.558594 -85.421875 389.441406 -88.582031 387.957031 C -90.925781 386.855469 -92.183594 386.667969 -97.222656 386.660156 L -103.121094 386.65625 Z M -103.121094 398.449219 "/></g></g></svg>