<svg xmlns="http://www.w3.org/2000/svg" xmlns:xlink="http://www.w3.org/1999/xlink" width="1920" zoomAndPan="magnify" viewBox="0 0 1440 809.999993" height="1080" preserveAspectRatio="xMidYMid meet" version="1.2"><defs><clipPath id="c36f4d0649"><path d="M 59 32 L 1390 32 L 1390 768 L 59 768 Z M 59 32 "/></clipPath><clipPath id="29cb43d141"><path d="M 518.007812 -332.960938 L 1391.621094 33.210938 L 930.933594 1132.316406 L 57.320312 766.144531 Z M 518.007812 -332.960938 "/></clipPath><clipPath id="a61b2c0f0e"><path d="M 518.007812 -332.960938 L 1391.621094 33.210938 L 930.933594 1132.316406 L 57.320312 766.144531 Z M 518.007812 -332.960938 "/></clipPath><clipPath id="469b3746b7"><path d="M 230 468 L 236 468 L 236 476 L 230 476 Z M 230 468 "/></clipPath><clipPath id="0786112978"><path d="M 518.007812 -332.960938 L 1391.621094 33.210938 L 930.933594 1132.316406 L 57.320312 766.144531 Z M 518.007812 -332.960938 "/></clipPath><clipPath id="998ed32995"><path d="M 518.007812 -332.960938 L 1391.621094 33.210938 L 930.933594 1132.316406 L 57.320312 766.144531 Z M 518.007812 -332.960938 "/></clipPath><clipPath id="6006803f78"><path d="M 937 410 L 946 410 L 946 420 L 937 420 Z M 937 410 "/></clipPath><clipPath id="eadb7a0bce"><path d="M 518.007812 -332.960938 L 1391.621094 33.210938 L 930.933594 1132.316406 L 57.320312 766.144531 Z M 518.007812 -332.960938 "/></clipPath><clipPath id="4a3a6325c5"><path d="M 518.007812 -332.960938 L 1391.621094 33.210938 L 930.933594 1132.316406 L 57.320312 766.144531 Z M 518.007812 -332.960938 "/></clipPath><clipPath id="0b7cd6c055"><path d="M 1253 139 L 1262 139 L 1262 150 L 1253 150 Z M 1253 139 "/></clipPath><clipPath id="366c5fa0a0"><path d="M 518.007812 -332.960938 L 1391.621094 33.210938 L 930.933594 1132.316406 L 57.320312 766.144531 Z M 518.007812 -332.960938 "/></clipPath><clipPath id="281b866327"><path d="M 518.007812 -332.960938 L 1391.621094 33.210938 L 930.933594 1132.316406 L 57.320312 766.144531 Z M 518.007812 -332.960938 "/></clipPath></defs><g id="9cb2d38d45"><g clip-rule="nonzero" clip-path="url(#c36f4d0649)"><g clip-rule="nonzero" clip-path="url(#29cb43d141)"><g clip-rule="nonzero" clip-path="url(#a61b2c0f0e)"><path style=" stroke:none;fill-rule:nonzero;fill:#000000;fill-opacity:1;" d="M 1388.9375 36.074219 C 1389.476562 33.746094 1387.996094 32.226562 1385.835938 32.65625 C 1382.652344 33.277344 1379.464844 34.289062 1376.5 35.648438 C 1372.761719 37.375 1369.335938 39.78125 1365.640625 41.570312 C 1359.5 44.519531 1353.121094 47.003906 1347.085938 50.136719 C 1342.34375 52.613281 1338.097656 56.039062 1333.367188 58.542969 C 1325.507812 62.683594 1316.746094 65.457031 1309.625 70.53125 C 1300.742188 76.84375 1290.644531 81.542969 1283.128906 89.808594 C 1276.082031 97.5625 1265.785156 101.921875 1260.398438 111.472656 C 1260.03125 112.125 1258.972656 112.351562 1258.460938 112.964844 C 1255.835938 116.097656 1252.71875 118.980469 1250.820312 122.515625 C 1246.347656 130.882812 1242.0625 139.398438 1238.453125 148.175781 C 1235.007812 156.5625 1232.066406 165.226562 1229.664062 173.980469 C 1227.242188 182.726562 1225.808594 191.746094 1223.820312 200.605469 C 1223.417969 202.394531 1222.820312 204.261719 1221.804688 205.746094 C 1221.617188 206.035156 1221.40625 206.316406 1221.207031 206.621094 C 1221.273438 216.570312 1213.539062 223.875 1207.921875 231.671875 C 1204.667969 236.199219 1201.6875 241.003906 1198.3125 245.484375 C 1197.34375 249.886719 1194.144531 252.898438 1190.816406 255.738281 C 1185.171875 260.578125 1179.117188 264.921875 1173.140625 269.347656 C 1169.996094 271.6875 1166.925781 273.902344 1164.5625 277.238281 C 1162.738281 279.832031 1159.71875 281.652344 1157.03125 283.5625 C 1153.988281 285.71875 1150.460938 287.210938 1147.640625 289.597656 C 1133.246094 301.863281 1116.765625 310.976562 1100.765625 320.753906 C 1085.445312 330.121094 1069.941406 339.324219 1053.089844 345.910156 C 1051.886719 346.371094 1050.597656 346.640625 1047.917969 347.378906 C 1049.773438 344.933594 1050.683594 343.636719 1051.660156 342.410156 C 1054.855469 338.410156 1058.46875 334.675781 1061.175781 330.355469 C 1064.816406 324.582031 1068.105469 318.710938 1072.949219 313.742188 C 1077.109375 309.480469 1080.777344 304.683594 1084.289062 299.875 C 1087.171875 295.902344 1089.40625 291.453125 1092.121094 287.339844 C 1095.074219 282.871094 1098.359375 278.609375 1101.265625 274.09375 C 1104.28125 269.417969 1107.179688 264.648438 1109.851562 259.761719 C 1111.511719 256.726562 1112.316406 253.21875 1114.097656 250.285156 C 1121.5625 237.96875 1126.117188 224.523438 1130.460938 210.917969 C 1133.652344 200.886719 1136.882812 190.820312 1140.863281 181.097656 C 1144.371094 172.507812 1148.628906 164.164062 1153.230469 156.101562 C 1155.339844 152.382812 1155.375 148.621094 1155.796875 144.816406 C 1156.164062 141.515625 1153.894531 140.402344 1150.996094 142.042969 C 1148.492188 143.457031 1145.828125 144.597656 1143.523438 146.253906 C 1138.53125 149.871094 1133.515625 153.546875 1128.855469 157.578125 C 1124.816406 161.0625 1121.53125 165.441406 1117.40625 168.800781 C 1107.679688 176.738281 1099.539062 185.941406 1092.753906 196.472656 C 1089.636719 201.335938 1085.816406 205.71875 1082.570312 210.503906 C 1078.277344 216.785156 1073.441406 222.835938 1070.222656 229.636719 C 1058.769531 253.773438 1050.894531 279.316406 1042.238281 304.53125 C 1037.808594 317.40625 1033.894531 330.476562 1029.890625 343.484375 C 1027.890625 350.011719 1024.195312 355.371094 1019.339844 360.03125 C 1018.464844 360.863281 1017.476562 361.898438 1016.371094 362.125 C 1007.511719 363.984375 999.066406 367.601562 989.789062 367.765625 C 982.59375 367.902344 975.402344 368.480469 968.25 369.234375 C 955.539062 370.558594 942.871094 372.222656 930.175781 373.625 C 916.847656 375.105469 903.453125 376.144531 890.171875 377.898438 C 877.28125 379.605469 864.457031 381.691406 851.410156 379.488281 C 848.761719 379.046875 846.0625 378.351562 843.429688 378.539062 C 835.007812 379.128906 826.566406 379.828125 818.210938 380.929688 C 806.582031 382.476562 794.96875 384.308594 783.390625 386.289062 C 773.847656 387.910156 764.378906 389.902344 754.886719 391.792969 C 749.234375 392.921875 743.636719 394.46875 737.9375 395.324219 C 732.851562 396.09375 727.691406 396.207031 722.546875 396.515625 C 720.628906 396.632812 718.546875 397.324219 716.179688 395.113281 C 721.480469 391.808594 726.226562 388.550781 731.230469 385.789062 C 741.167969 380.3125 751.6875 375.972656 761.214844 369.722656 C 767.941406 365.3125 775.019531 361.445312 781.476562 356.691406 C 788.453125 351.582031 794.984375 345.828125 801.515625 340.136719 C 806.335938 335.941406 811.261719 331.769531 815.402344 326.945312 C 824.679688 316.121094 833.59375 305.011719 842.457031 293.855469 C 850.535156 283.707031 857.25 272.570312 866.09375 262.949219 C 869.261719 259.511719 870.914062 253.921875 868.566406 248.539062 C 867.707031 248.503906 867.089844 248.382812 866.515625 248.488281 C 854.667969 250.449219 843.1875 253.785156 832.164062 258.445312 C 826.871094 260.691406 821.929688 263.753906 816.871094 266.535156 C 814.570312 267.804688 812.550781 269.765625 810.121094 270.613281 C 797.320312 274.960938 786.171875 282.605469 774.214844 288.617188 C 767.796875 291.84375 762.113281 296.507812 756.113281 300.503906 C 754.226562 301.761719 752.15625 302.804688 750.433594 304.273438 C 741.007812 312.265625 731.585938 320.242188 722.34375 328.453125 C 717.421875 332.835938 712.609375 337.402344 708.21875 342.328125 C 702.445312 348.796875 697.121094 355.679688 691.632812 362.402344 C 690.59375 363.671875 689.5 364.960938 688.660156 366.359375 C 684.734375 372.929688 680.695312 379.433594 677.113281 386.171875 C 674.710938 390.691406 672.738281 395.503906 671.035156 400.339844 C 669.839844 403.683594 667.957031 405.539062 664.453125 405.933594 C 656.644531 406.828125 648.867188 407.757812 641.054688 408.765625 C 636.769531 409.316406 632.503906 410.546875 628.214844 410.566406 C 619.832031 410.574219 611.832031 412.308594 603.800781 414.328125 C 596.625 416.132812 589.46875 418.542969 582.179688 419.285156 C 574.507812 420.074219 567.042969 421.296875 559.835938 423.9375 C 549.285156 427.800781 538.289062 429.753906 527.269531 431.121094 C 513.742188 432.792969 500.273438 434.285156 487.515625 439.457031 C 482.550781 441.472656 477.59375 443.585938 472.433594 444.96875 C 460.636719 448.125 449.3125 452.242188 438.453125 457.933594 C 431.878906 461.371094 424.871094 463.980469 418.058594 466.996094 C 411.644531 469.832031 405.214844 472.59375 398.859375 475.566406 C 388.589844 480.402344 378.546875 485.746094 368.089844 490.15625 C 360.730469 493.265625 354.1875 497.402344 347.941406 502.199219 C 339.441406 508.695312 331.074219 515.363281 322.574219 521.859375 C 313.757812 528.613281 304.910156 535.335938 295.933594 541.863281 C 295.335938 542.300781 294.722656 542.667969 294.117188 543.011719 C 292.519531 544.734375 290.996094 546.558594 289.164062 548.070312 C 286.6875 550.140625 283.921875 551.46875 281.125 553.035156 C 273.613281 557.277344 267.871094 564.007812 260.742188 568.871094 C 259.386719 569.796875 257.972656 570.148438 256.640625 570.09375 C 255.8125 570.53125 254.976562 570.988281 254.160156 571.449219 C 249.921875 573.933594 245.714844 576.496094 241.625 579.226562 C 239.257812 580.8125 237.164062 582.835938 234.875 584.566406 C 231.078125 587.417969 227.214844 590.152344 223.417969 593.003906 C 220.9375 594.863281 218.816406 597.449219 216.046875 598.613281 C 209.957031 601.171875 205.515625 605.730469 200.515625 609.691406 C 198.890625 610.988281 197.390625 613.03125 193.964844 612.308594 C 195.441406 608.460938 197.582031 605.605469 199.914062 602.785156 C 203.734375 598.171875 207.871094 593.738281 210.96875 588.660156 C 218.273438 576.664062 224.980469 564.285156 232.050781 552.144531 C 236.410156 544.652344 241.050781 537.320312 245.488281 529.855469 C 247.796875 525.945312 250.191406 522.042969 252.058594 517.921875 C 256.78125 507.585938 261.238281 497.117188 265.84375 486.734375 C 266.273438 485.761719 266.964844 484.878906 267.84375 483.609375 C 269.992188 477.328125 273.101562 471.335938 276.28125 465.511719 C 278.113281 462.132812 279.980469 458.773438 281.847656 455.414062 C 283.519531 450.773438 285.050781 446.074219 286.289062 441.253906 C 286.441406 440.671875 286.6875 440.246094 286.996094 439.890625 C 289.597656 432.371094 292.175781 424.84375 294.777344 417.324219 C 295.988281 413.828125 297.375 410.355469 298.441406 406.820312 C 300.511719 399.90625 302.316406 392.90625 304.433594 385.992188 C 306.191406 380.257812 308.046875 374.570312 310.203125 368.980469 C 312.21875 363.792969 314.023438 358.335938 317.128906 353.835938 C 320.480469 349.027344 320.039062 344.144531 319.691406 339.097656 C 319.464844 335.847656 317.0625 334.933594 314.488281 336.960938 C 313.210938 337.96875 312.289062 339.402344 311.171875 340.636719 C 308.429688 343.722656 305.996094 347.167969 302.890625 349.847656 C 291.007812 360.128906 279.566406 370.847656 269.347656 382.816406 C 266.671875 385.957031 263.039062 388.53125 261.144531 392.0625 C 255.601562 402.425781 246.644531 410.015625 239.847656 419.367188 C 233.144531 428.597656 226.234375 437.511719 222.097656 448.253906 C 221.386719 450.121094 220.054688 451.863281 218.617188 453.265625 C 213.355469 458.402344 209.367188 464.347656 206.417969 471.054688 C 205.160156 473.890625 204.25 477.050781 202.351562 479.386719 C 196.410156 486.75 193.605469 495.75 189.105469 503.851562 C 185.308594 510.710938 182.53125 518.15625 178.488281 524.839844 C 173.863281 532.523438 170.636719 540.769531 167.382812 549.027344 C 163.535156 558.808594 160.964844 569.011719 158.671875 579.261719 C 157.234375 585.703125 156.199219 592.242188 154.996094 598.738281 C 154.257812 602.800781 153.957031 606.980469 152.753906 610.894531 C 149.367188 621.882812 149.125 632.785156 152.46875 643.761719 C 153.390625 646.773438 152.808594 649.316406 150.828125 651.847656 C 143.128906 661.648438 134.167969 670.070312 124.828125 678.285156 C 117.425781 684.804688 111.011719 692.523438 104.5 699.988281 C 97.710938 707.78125 92.035156 716.65625 84.570312 723.703125 C 74.054688 733.636719 68.566406 746.667969 60.800781 758.28125 C 60.246094 759.109375 59.957031 760.183594 59.726562 761.167969 C 59.21875 763.257812 59.132812 765.386719 61.210938 766.742188 C 63.351562 768.121094 65.269531 767.222656 66.726562 765.554688 C 68.914062 763.085938 71.035156 760.546875 72.921875 757.859375 C 77.664062 751.101562 81.785156 743.851562 87.035156 737.535156 C 94.277344 728.828125 102.570312 721.117188 109.40625 711.898438 C 116.472656 702.339844 125.152344 693.773438 134.050781 685.832031 C 142.574219 678.242188 149.722656 669.476562 157.589844 661.308594 C 161.859375 656.882812 165.503906 651.710938 170.253906 647.902344 C 184.453125 636.542969 199.316406 626.015625 213.421875 614.546875 C 223.828125 606.085938 236.226562 600.28125 245.25 590.066406 C 246.570312 588.570312 248.613281 587.703125 250.390625 586.652344 C 255.359375 583.691406 260.652344 581.167969 265.316406 577.785156 C 273.996094 571.523438 282.304688 564.714844 290.835938 558.253906 C 295.769531 554.5 300.914062 551.015625 305.878906 547.296875 C 310.320312 543.953125 314.902344 540.765625 318.96875 536.992188 C 326.238281 530.253906 333.148438 523.207031 342.476562 519.082031 C 345.332031 517.816406 347.007812 517.4375 348.300781 520.671875 C 348.664062 521.5625 349.4375 522.300781 350.230469 523.371094 C 355.640625 521.171875 360.660156 521.777344 365.777344 524.339844 C 377.898438 530.40625 391.191406 533.011719 404.265625 535.980469 C 414.121094 538.226562 424.246094 539.335938 434.308594 540.539062 C 445.367188 541.882812 456.480469 543.109375 467.585938 543.738281 C 477.234375 544.28125 486.949219 544.003906 496.640625 543.898438 C 506.957031 543.78125 517.265625 543.40625 527.585938 543.21875 C 531.09375 543.148438 534.640625 543.578125 538.121094 543.351562 C 552.757812 542.421875 567.386719 541.625 581.976562 540.210938 C 602.285156 538.273438 622.535156 535.875 642.808594 533.53125 C 644.59375 533.335938 646.5 532.523438 647.933594 531.464844 C 649.453125 530.308594 651.132812 528.664062 651.589844 526.917969 C 652.207031 524.507812 649.839844 523.515625 647.917969 522.664062 C 646.964844 522.242188 646.023438 521.800781 645.066406 521.445312 C 628.0625 515.054688 611.28125 508.023438 593.46875 504.007812 C 590.058594 503.246094 586.488281 502.488281 583.429688 500.882812 C 573.074219 495.4375 561.777344 492.679688 550.71875 489.566406 C 533.640625 484.734375 516.195312 481.265625 498.859375 477.3125 C 496.867188 476.847656 494.746094 476.855469 492.683594 476.890625 C 484.023438 477.011719 475.34375 477.722656 466.722656 477.265625 C 449.246094 476.339844 432.632812 479.894531 416.242188 485.386719 C 411.664062 486.917969 406.921875 488.015625 402.261719 489.308594 C 402.558594 487.660156 403.199219 486.847656 404.035156 486.390625 C 411.441406 482.339844 418.816406 478.203125 426.367188 474.414062 C 431.511719 471.804688 436.898438 469.664062 442.21875 467.40625 C 449.609375 464.265625 456.800781 460.398438 464.492188 458.304688 C 472.988281 455.996094 482.039062 455.601562 489.160156 449.492188 C 489.589844 449.121094 490.296875 449.023438 490.882812 448.832031 C 501.351562 445.441406 512.011719 443.578125 523.078125 442.875 C 532.496094 442.265625 542.222656 440.910156 550.976562 437.605469 C 560.238281 434.121094 569.648438 432.539062 579.203125 430.949219 C 582.25 430.433594 585.367188 429.644531 588.398438 429.878906 C 592.3125 430.207031 595.765625 429.214844 599.253906 427.867188 C 610.28125 423.582031 621.453125 420.046875 633.550781 420.789062 C 634.964844 420.875 636.414062 420.492188 637.855469 420.246094 C 640.800781 419.753906 643.738281 419.28125 645.976562 420.359375 C 646.097656 420.292969 646.238281 420.238281 646.382812 420.160156 C 647.214844 419.773438 648.035156 419.355469 648.898438 419.050781 C 650.691406 418.398438 652.65625 417.933594 654.566406 417.71875 C 657.160156 417.402344 659.808594 417.453125 662.425781 417.699219 C 663.148438 417.449219 663.867188 417.222656 664.578125 417.011719 C 672.101562 414.871094 679.804688 413.246094 687.542969 412.089844 C 697.054688 410.644531 706.8125 410.546875 716.222656 408.6875 C 723.894531 407.1875 731.371094 405.117188 739.289062 405.558594 C 740.519531 405.636719 741.84375 405.617188 742.988281 405.242188 C 752.644531 401.972656 762.761719 401.285156 772.722656 399.660156 C 779.640625 398.53125 786.484375 396.980469 793.378906 395.796875 C 803.144531 394.132812 812.957031 392.746094 822.710938 391.054688 C 833.359375 389.210938 843.945312 388.285156 854.5625 391.351562 C 856.898438 392.035156 859.800781 392.859375 861.851562 392.082031 C 867.730469 389.808594 873.679688 390.941406 879.589844 390.519531 C 886.984375 390.003906 892.050781 393.347656 897.042969 398.132812 C 901.957031 402.839844 907.425781 406.925781 912.664062 411.285156 C 913.921875 412.34375 915.308594 413.269531 916.539062 414.339844 C 926.40625 422.824219 936.144531 431.441406 946.128906 439.746094 C 949.273438 442.355469 952.894531 444.585938 956.609375 446.324219 C 974.589844 454.714844 992.558594 463.144531 1010.792969 470.992188 C 1020.050781 474.988281 1029.832031 477.847656 1039.414062 481.078125 C 1043.523438 482.480469 1047.765625 483.453125 1051.886719 484.765625 C 1052.945312 485.09375 1053.710938 485.578125 1054.210938 486.199219 C 1069.167969 489.890625 1085.417969 491.867188 1099.988281 497.308594 C 1100.953125 497.480469 1101.871094 497.707031 1102.757812 498.007812 C 1104.949219 498.765625 1107.128906 499.609375 1109.246094 500.542969 C 1115.304688 500.917969 1121.304688 501.480469 1127.199219 502.796875 C 1127.859375 502.269531 1128.417969 501.652344 1128.734375 501 C 1129.21875 500.007812 1127.367188 497.457031 1126.0625 496.058594 C 1122.84375 492.59375 1119.050781 489.667969 1116.03125 486.054688 C 1109.664062 478.457031 1103.753906 470.480469 1097.445312 462.839844 C 1097.09375 462.417969 1096.78125 462.011719 1096.476562 461.582031 C 1096.335938 461.433594 1096.191406 461.28125 1096.046875 461.128906 C 1093.546875 459.457031 1091.089844 457.691406 1088.453125 456.238281 C 1082.125 452.714844 1076.179688 448.886719 1070.34375 444.574219 C 1069.34375 443.832031 1068.667969 442.976562 1068.246094 442.0625 C 1067.65625 441.816406 1067.140625 441.507812 1066.710938 441.164062 C 1054.09375 434.632812 1041.484375 428.082031 1028.808594 421.640625 C 1024.386719 419.394531 1019.84375 417.378906 1015.25 415.542969 C 1011.046875 413.875 1006.691406 412.507812 1002.394531 411.121094 C 988.640625 406.644531 975.050781 401.503906 961.054688 397.984375 C 949.035156 394.972656 937.121094 391.820312 925.421875 387.769531 C 923.570312 387.128906 921.382812 386.695312 921.164062 383.3125 C 923.601562 383.160156 925.78125 383.015625 927.964844 382.851562 C 930.835938 382.648438 933.816406 382.792969 936.597656 382.140625 C 948.363281 379.382812 960.21875 378.066406 972.28125 379.164062 C 983.855469 380.21875 994.929688 378.183594 1005.605469 373.75 C 1008.058594 372.730469 1010.679688 371.964844 1013.292969 371.445312 C 1014.117188 371.285156 1015.457031 371.664062 1016.113281 372.238281 C 1020.726562 369.476562 1026.160156 367.65625 1031.519531 366.679688 C 1036.835938 362.230469 1042.746094 358.5625 1049.714844 356.164062 C 1056.707031 353.757812 1063.210938 349.992188 1069.925781 346.773438 C 1074.222656 344.707031 1078.488281 342.652344 1082.667969 340.375 C 1088.644531 337.101562 1094.585938 333.792969 1100.371094 330.210938 C 1104.539062 327.628906 1109.183594 325.660156 1112.085938 321.261719 C 1112.898438 320.035156 1114.738281 319.496094 1116.148438 318.707031 C 1122.394531 315.175781 1129.289062 312.726562 1134.597656 307.585938 C 1136.96875 305.285156 1139.515625 303.109375 1142.25 301.308594 C 1158.625 290.46875 1174.246094 278.625 1189.058594 265.75 C 1193.574219 261.84375 1198.1875 257.976562 1202.257812 253.648438 C 1207.355469 248.238281 1211.839844 242.265625 1216.765625 236.710938 C 1222.667969 230.046875 1226.660156 222.558594 1228.304688 213.742188 C 1228.660156 211.910156 1230.101562 210.003906 1231.550781 208.746094 C 1233.566406 207.015625 1235.933594 205.542969 1238.398438 204.550781 C 1252.15625 198.96875 1263.746094 189.878906 1275.714844 181.472656 C 1285.496094 174.617188 1294.707031 166.921875 1303.746094 159.085938 C 1309.636719 153.980469 1314.980469 148.210938 1320.1875 142.378906 C 1324.292969 137.796875 1327.632812 132.519531 1331.617188 127.789062 C 1338.441406 119.691406 1344.300781 110.9375 1348.957031 101.472656 C 1355.089844 89.035156 1361.503906 76.804688 1369.703125 65.601562 C 1374.199219 59.429688 1378.691406 53.164062 1383.917969 47.664062 C 1387.234375 44.199219 1387.988281 40.210938 1388.9375 36.074219 Z M 263.050781 467.859375 C 257.851562 479.332031 253.222656 491.085938 248.296875 502.675781 C 245.164062 510.039062 241.914062 517.355469 238.703125 524.6875 C 238.125 526.011719 237.59375 527.445312 236.664062 528.507812 C 230.726562 535.363281 227.851562 543.871094 223.65625 551.6875 C 218.695312 560.890625 213.050781 569.734375 207.703125 578.703125 C 203.988281 576.203125 200.949219 574.167969 197.671875 571.945312 C 198.460938 566.703125 200.382812 561.847656 203.121094 557.125 C 207.066406 550.351562 210.433594 543.246094 214.28125 536.433594 C 216.695312 532.152344 219.519531 528.109375 222.210938 523.992188 C 225.996094 518.210938 230.046875 512.65625 233.476562 506.566406 C 238.511719 497.628906 244.453125 489.160156 249.199219 479.984375 C 252.128906 474.308594 254.882812 468.511719 257.851562 462.851562 C 259.058594 460.523438 260.601562 458.382812 262.351562 455.574219 C 264.933594 460.179688 264.949219 463.660156 263.050781 467.859375 Z M 162.660156 612.632812 C 161.421875 607.023438 161.953125 602.734375 165.613281 598.558594 C 168.394531 601.429688 169.136719 604.871094 170.523438 609.089844 C 167.734375 610.359375 165.46875 611.367188 162.660156 612.632812 Z M 198.917969 546.453125 C 195.414062 555.25 190.285156 563.367188 186.164062 571.933594 C 183.667969 577.125 181.769531 582.589844 179.542969 587.894531 C 179.011719 589.167969 178.289062 590.339844 177.539062 591.75 C 174.242188 589.011719 171.308594 586.5625 167.800781 583.617188 C 168.855469 575.726562 171.25 567.707031 173.808594 559.617188 C 178.625 544.507812 187.179688 531.289062 194.109375 517.230469 C 198.566406 508.1875 202 498.621094 206.328125 489.503906 C 208.441406 485.070312 211.5625 481.132812 214.175781 476.929688 C 220.285156 467.132812 226.070312 457.125 232.550781 447.59375 C 240.21875 436.328125 247.960938 425.050781 256.613281 414.566406 C 266.859375 402.148438 278.054688 390.542969 289.015625 378.722656 C 290.996094 376.582031 293.777344 375.171875 296.199219 373.402344 L 297.640625 374.625 C 297.25 376.164062 296.980469 377.734375 296.472656 379.226562 C 295.59375 381.757812 294.167969 384.175781 293.65625 386.769531 C 291.976562 395.226562 286.820312 401.652344 281.667969 408.125 C 280.894531 409.089844 279.675781 409.960938 279.433594 411.03125 C 277.875 418.160156 272.449219 423.136719 269.496094 429.472656 C 269.15625 430.226562 268.8125 431.050781 268.21875 431.582031 C 261.058594 438.179688 258.5 447.742188 252.898438 455.339844 C 251.054688 457.8125 249.375 460.402344 247.671875 462.980469 C 246.4375 464.878906 244.90625 466.722656 244.253906 468.820312 C 243.003906 472.902344 241.597656 476.476562 237.257812 478.433594 C 235.953125 479.015625 235.210938 481.398438 234.714844 483.125 C 233.738281 486.441406 232.414062 488.996094 228.875 490.527344 C 224.792969 492.292969 224.230469 493.691406 225.472656 497.871094 C 226.523438 501.351562 225.257812 503.765625 223.367188 506.40625 C 214.261719 519.183594 204.796875 531.652344 198.917969 546.453125 Z M 175.746094 621.613281 C 176.730469 615.972656 176.730469 615.972656 182.21875 609.964844 C 182.203125 614.722656 179.261719 617.839844 175.746094 621.613281 Z M 195.105469 595.363281 C 193.585938 597.117188 191.359375 598.257812 189.085938 596.707031 C 186.882812 595.207031 187.9375 593.023438 188.578125 591.105469 C 191.304688 583.015625 192.75 582.472656 201.058594 587.152344 C 198.925781 590.148438 197.207031 592.925781 195.105469 595.363281 Z M 382.222656 520.804688 C 381.46875 518.761719 380.402344 517.347656 380.730469 516.402344 C 381.488281 514.210938 383.695312 514.214844 385.371094 515.101562 C 386.308594 515.609375 386.671875 517.214844 387.289062 518.324219 C 385.816406 519.039062 384.339844 519.757812 382.222656 520.804688 Z M 390.570312 521.148438 C 390.382812 521 390.453125 520.5 390.433594 520.214844 C 390.773438 520.058594 391.089844 519.914062 391.410156 519.75 C 391.480469 520.242188 391.542969 520.703125 391.613281 521.195312 C 391.242188 521.199219 390.792969 521.335938 390.570312 521.148438 Z M 423.066406 491.953125 C 432.808594 490.074219 442.527344 488.140625 452.320312 486.582031 C 456.160156 485.980469 460.148438 486.132812 464.074219 486.328125 C 475.816406 486.921875 487.636719 487.066406 499.269531 488.582031 C 514.003906 490.5 528.625 493.402344 542.824219 497.972656 C 554.8125 501.824219 566.703125 506.027344 578.644531 509.996094 C 582.117188 511.152344 585.679688 512.046875 589.203125 513.085938 C 568.8125 513.679688 549.179688 509.824219 529.425781 506.652344 C 519.066406 505.003906 508.488281 504.484375 497.992188 504.042969 C 493.105469 503.835938 488.191406 505.183594 483.277344 505.542969 C 478.789062 505.871094 474.273438 505.980469 469.761719 505.816406 C 454.695312 505.300781 439.644531 504.632812 424.585938 503.984375 C 421.167969 503.839844 419.226562 501.277344 418.601562 496.617188 C 418.089844 493.066406 420.585938 492.433594 423.066406 491.953125 Z M 411.878906 513.367188 C 423.640625 513.761719 435.378906 514.699219 447.109375 515.265625 C 453.09375 515.542969 459.101562 515.710938 465.070312 515.476562 C 473.707031 515.136719 482.339844 513.757812 490.964844 513.945312 C 501.234375 514.152344 511.558594 513.527344 521.8125 515.753906 C 532.085938 517.988281 542.457031 520.101562 552.875 521.109375 C 566.589844 522.4375 580.460938 522.40625 594.214844 523.429688 C 601.710938 523.992188 609.132812 525.515625 616.597656 526.59375 C 616.65625 527.058594 616.726562 527.546875 616.785156 528.007812 C 615.171875 528.507812 613.613281 529.210938 611.949219 529.503906 C 599.554688 531.71875 587.234375 534.3125 574.488281 534.128906 C 567.515625 534.015625 560.523438 535.59375 553.546875 535.710938 C 542.207031 535.90625 530.859375 535.523438 519.519531 535.394531 C 515.601562 535.34375 511.679688 535.425781 507.777344 535.285156 C 503.476562 535.117188 499.171875 534.511719 494.871094 534.503906 C 489.53125 534.496094 484.132812 534.46875 478.847656 535.222656 C 470.304688 536.429688 462.007812 534.425781 453.628906 533.765625 C 444.40625 533.03125 435.277344 531.253906 426.082031 530.117188 C 423.4375 529.789062 422.246094 528.625 421.253906 526.207031 C 419.09375 520.925781 416.558594 520.601562 412.757812 524.671875 C 409.375 528.292969 407.636719 528.488281 402.671875 525.78125 C 402.425781 521.8125 402.226562 518.4375 401.972656 514.210938 C 404.558594 512.878906 408.378906 513.257812 411.878906 513.367188 Z M 408.636719 497.160156 C 409.679688 501.097656 408.371094 503.171875 405.285156 503.835938 C 400.492188 504.84375 395.667969 504.984375 390.746094 503.382812 C 396.261719 499.9375 402.101562 497.875 408.636719 497.160156 Z M 843.671875 279.980469 C 842.980469 281.300781 842.46875 282.742188 841.574219 283.886719 C 831.761719 296.417969 821.914062 308.933594 811.996094 321.394531 C 810.871094 322.8125 809.234375 323.804688 807.832031 325.015625 C 804.566406 327.859375 801.332031 330.738281 798.027344 333.519531 C 787.664062 342.320312 778.015625 351.996094 765.789062 358.425781 C 757.019531 363.039062 748.519531 368.152344 739.796875 372.875 C 736.96875 374.40625 733.863281 375.386719 730.578125 376.746094 C 730.90625 372.28125 730.800781 368.53125 731.601562 365.023438 C 732.109375 362.816406 733.566406 360.390625 735.308594 358.980469 C 742.046875 353.5625 749.171875 348.585938 756.019531 343.28125 C 762.554688 338.242188 768.910156 332.964844 775.382812 327.847656 C 779.414062 324.65625 783.472656 321.503906 787.566406 318.382812 C 791.1875 315.621094 795.210938 313.324219 798.464844 310.175781 C 807.1875 301.726562 818.1875 296.621094 827.800781 289.507812 C 830.9375 287.1875 834.027344 284.753906 837.195312 282.46875 C 838.941406 281.21875 840.800781 280.132812 842.625 278.964844 Z M 718.066406 384.625 C 711.523438 388.375 704.875 391.9375 698.277344 395.597656 C 697.957031 395.253906 697.648438 394.894531 697.332031 394.554688 C 697.765625 393.679688 698 392.578125 698.675781 392.011719 C 703.578125 387.941406 708.496094 383.902344 713.609375 380.109375 C 714.675781 379.3125 716.777344 378.972656 717.941406 379.484375 C 720.578125 380.613281 720.585938 383.171875 718.066406 384.625 Z M 711.742188 369.566406 C 709.429688 371.726562 707.640625 373.96875 703.839844 373.207031 C 702.585938 372.957031 700.335938 374.476562 699.550781 375.804688 C 698.128906 378.15625 696.824219 380.117188 694.191406 381.453125 C 692.671875 382.21875 691.359375 384.527344 691.050781 386.304688 C 690.332031 390.65625 687.691406 393.117188 684.433594 395.226562 C 683.976562 394.894531 683.507812 394.585938 683.046875 394.253906 C 684.816406 390.804688 686.375 387.246094 688.382812 383.945312 C 691.390625 379.015625 694.667969 374.21875 697.96875 369.476562 C 700.441406 365.933594 702.8125 362.253906 707.570312 361.234375 C 710.074219 360.695312 711.121094 358.578125 711.445312 356.160156 C 711.886719 352.914062 713.683594 350.652344 716.125 348.453125 C 728.699219 337.125 740.964844 325.4375 753.632812 314.21875 C 757.765625 310.566406 762.707031 307.78125 767.492188 304.929688 C 774.605469 300.707031 782.050781 297.058594 789.054688 292.699219 C 804.03125 283.4375 821.125 278.746094 836.523438 270.398438 C 839.710938 268.671875 843.019531 267.203125 846.511719 265.515625 C 846.652344 266.773438 846.875 267.394531 846.71875 267.492188 C 838.980469 272.878906 831.144531 278.179688 823.4375 283.605469 C 816.011719 288.851562 808.652344 294.167969 801.34375 299.574219 C 787.761719 309.625 774.242188 319.796875 760.671875 329.878906 C 751.570312 336.652344 742.171875 343.046875 733.328125 350.136719 C 725.855469 356.214844 718.835938 362.964844 711.742188 369.566406 Z M 1102.011719 489.132812 C 1098.308594 486.382812 1092.667969 485.285156 1092.792969 478.617188 C 1097.511719 480.203125 1100.550781 483.503906 1102.011719 489.132812 Z M 1023.011719 431.296875 C 1025.3125 431.960938 1027.78125 432.328125 1029.878906 433.367188 C 1042.398438 439.628906 1054.871094 446.007812 1067.320312 452.449219 C 1070.96875 454.34375 1071.757812 456.472656 1070.636719 460.027344 C 1069.117188 464.800781 1066.84375 465.667969 1063.035156 462.230469 C 1056.234375 456.109375 1048.472656 451.5 1040.640625 446.902344 C 1033.933594 442.964844 1028.074219 437.886719 1022.15625 432.894531 C 1022.445312 432.371094 1022.742188 431.828125 1023.011719 431.296875 Z M 930.460938 405.347656 C 932.382812 402.519531 934.460938 402.996094 936.871094 404.167969 C 947.230469 409.222656 957.5625 414.339844 967.964844 419.34375 C 973.726562 422.125 979.464844 425.015625 985.382812 427.378906 C 997.152344 432.082031 1007.902344 438.566406 1018.425781 445.535156 C 1025.125 449.976562 1032.277344 453.734375 1039.003906 458.164062 C 1044.6875 461.90625 1050.058594 466.113281 1055.5 470.214844 C 1056.972656 471.3125 1058.484375 472.59375 1059.433594 474.117188 C 1060.054688 475.113281 1060.125 476.917969 1059.65625 477.984375 C 1059.332031 478.703125 1057.597656 478.828125 1056.476562 479.09375 C 1056.117188 479.171875 1055.675781 478.964844 1055.269531 478.839844 C 1046 475.96875 1036.710938 473.085938 1026.40625 469.875 C 1026.464844 469.898438 1025.472656 469.527344 1024.640625 468.925781 C 1018.75 464.476562 1011.570312 462.871094 1005.03125 459.855469 C 999.230469 457.171875 993.316406 454.691406 987.578125 451.847656 C 976.816406 446.554688 966.113281 441.171875 955.480469 435.609375 C 945.207031 430.246094 937.726562 421.515625 929.734375 413.449219 C 927.011719 410.71875 927.527344 409.714844 930.460938 405.347656 Z M 918.085938 403.292969 C 913.269531 402.539062 911.085938 398.082031 906.976562 395.414062 C 909.5625 395.347656 911.570312 395.335938 913.582031 395.257812 C 919.546875 394.972656 920.832031 397.125 918.085938 403.292969 Z M 1122.390625 177.058594 C 1122.695312 177.210938 1123.003906 177.359375 1123.328125 177.519531 C 1122.457031 178.769531 1121.589844 180.015625 1120.722656 181.261719 L 1120.714844 181.28125 Z M 1073.246094 265.089844 C 1068.578125 274.964844 1063.988281 284.875 1059.476562 294.8125 C 1058.464844 297.0625 1058.171875 299.628906 1057.128906 301.839844 C 1053.164062 310.148438 1049.011719 318.351562 1044.132812 326.316406 C 1046.3125 319.082031 1048.328125 311.800781 1050.683594 304.640625 C 1053.054688 297.394531 1056 290.316406 1058.28125 283.054688 C 1063.089844 267.691406 1069.378906 252.902344 1075.726562 238.136719 C 1077.011719 235.128906 1078.988281 232.390625 1080.785156 229.644531 C 1091.089844 213.960938 1101.058594 198.019531 1114.335938 184.523438 C 1116.144531 182.683594 1117.882812 181.0625 1120.679688 181.359375 C 1115.972656 188.640625 1111.082031 195.753906 1106.585938 203.121094 C 1100.070312 213.835938 1093.527344 224.558594 1087.566406 235.59375 C 1082.367188 245.203125 1077.917969 255.214844 1073.246094 265.089844 Z M 1062.457031 307.480469 C 1066.410156 301.335938 1069.050781 294.660156 1071.183594 287.703125 C 1072.324219 283.992188 1073.984375 280.359375 1075.90625 276.976562 C 1079.78125 270.152344 1083.511719 263.339844 1086.054688 255.839844 C 1087.503906 251.613281 1090.300781 247.859375 1092.496094 243.878906 C 1100.96875 228.503906 1109.359375 213.101562 1117.957031 197.804688 C 1120.015625 194.15625 1122.410156 190.578125 1127 187.761719 C 1126.71875 189.96875 1126.746094 191.382812 1126.355469 192.648438 C 1122.925781 203.25 1119.847656 213.996094 1115.820312 224.371094 C 1112.15625 233.769531 1107.261719 242.699219 1103.199219 251.953125 C 1095.839844 268.691406 1086.109375 283.992188 1075.3125 298.664062 C 1071.664062 303.628906 1067.257812 307.882812 1062.523438 311.765625 L 1061.28125 310.832031 C 1061.660156 309.703125 1061.824219 308.4375 1062.457031 307.480469 Z M 1262.210938 153.230469 C 1260.417969 156.023438 1258.722656 157.871094 1255.050781 158.171875 C 1250.492188 158.5625 1247.753906 163.285156 1250.476562 166.726562 C 1254.644531 171.996094 1251.179688 175.863281 1249.027344 179.632812 C 1247.078125 183.074219 1243.703125 185.6875 1240.667969 188.972656 C 1236.796875 185.027344 1236.113281 181.609375 1239.246094 177.699219 C 1242.628906 173.476562 1243.878906 169.28125 1242.847656 163.945312 C 1242.402344 161.664062 1243.183594 158.976562 1243.941406 156.667969 C 1247.808594 145.03125 1252.847656 133.882812 1260.734375 124.460938 C 1266.785156 117.214844 1273.136719 110.136719 1281.363281 105.066406 C 1283.964844 103.464844 1286.152344 101.160156 1288.367188 99.003906 C 1296.566406 90.976562 1306.414062 85.277344 1316.019531 79.21875 C 1318.707031 77.535156 1321.304688 75.726562 1323.992188 73.929688 C 1325.714844 76.355469 1324.210938 77.472656 1323.175781 78.625 C 1315.992188 86.59375 1308.625 94.394531 1301.621094 102.535156 C 1295.035156 110.175781 1288.871094 118.183594 1282.445312 125.988281 C 1280.230469 128.695312 1277.570312 131.078125 1275.542969 133.890625 C 1270.941406 140.199219 1266.441406 146.648438 1262.210938 153.230469 Z M 1357.914062 66.371094 C 1353.925781 73.582031 1349.925781 80.816406 1345.660156 87.867188 C 1337.984375 100.578125 1330.121094 113.1875 1322.273438 125.808594 C 1315.910156 136.054688 1307.492188 144.65625 1299.085938 153.125 C 1293.898438 158.363281 1287.589844 162.488281 1281.675781 166.984375 C 1280.789062 167.671875 1279.292969 168.105469 1278.214844 167.882812 C 1273.59375 166.933594 1271.9375 169.625 1270.707031 173.320312 C 1269.109375 178.175781 1265.441406 180.34375 1259.753906 181.113281 C 1260.320312 176.082031 1262.585938 172.105469 1264.617188 168.304688 C 1268.988281 160.125 1273.828125 152.207031 1278.695312 144.328125 C 1280.636719 141.179688 1282.96875 138.246094 1285.371094 135.429688 C 1296.785156 122.144531 1308.503906 109.125 1319.648438 95.609375 C 1325.070312 89.042969 1331.84375 83.871094 1337.179688 77.453125 C 1342.242188 71.355469 1348.035156 66.164062 1353.820312 60.925781 C 1355.707031 59.230469 1358.117188 58.144531 1360.300781 56.78125 C 1360.777344 57.234375 1361.253906 57.6875 1361.746094 58.167969 C 1360.507812 60.898438 1359.386719 63.742188 1357.914062 66.371094 Z M 1357.914062 66.371094 "/></g></g></g><g clip-rule="nonzero" clip-path="url(#469b3746b7)"><g clip-rule="nonzero" clip-path="url(#0786112978)"><g clip-rule="nonzero" clip-path="url(#998ed32995)"><path style=" stroke:none;fill-rule:nonzero;fill:#000000;fill-opacity:1;" d="M 230.652344 475.734375 C 231.203125 472.996094 231.617188 470.914062 232.144531 468.28125 C 236.394531 472.363281 236.328125 472.679688 230.652344 475.734375 Z M 230.652344 475.734375 "/></g></g></g><g clip-rule="nonzero" clip-path="url(#6006803f78)"><g clip-rule="nonzero" clip-path="url(#eadb7a0bce)"><g clip-rule="nonzero" clip-path="url(#4a3a6325c5)"><path style=" stroke:none;fill-rule:nonzero;fill:#000000;fill-opacity:1;" d="M 939.777344 419.152344 C 937.597656 418.148438 936.3125 414.339844 937.449219 412.238281 C 938.394531 410.472656 941.382812 409.605469 943.429688 410.488281 C 945.558594 411.402344 946.214844 413.679688 945.070312 416.238281 C 943.964844 418.765625 941.6875 420.023438 939.777344 419.152344 Z M 939.777344 419.152344 "/></g></g></g><g clip-rule="nonzero" clip-path="url(#0b7cd6c055)"><g clip-rule="nonzero" clip-path="url(#366c5fa0a0)"><g clip-rule="nonzero" clip-path="url(#281b866327)"><path style=" stroke:none;fill-rule:nonzero;fill:#000000;fill-opacity:1;" d="M 1253.800781 141.878906 C 1254.675781 139.621094 1256.167969 138.589844 1258.617188 139.503906 C 1261.222656 140.480469 1262.324219 143.011719 1261.222656 145.425781 C 1260.101562 147.882812 1257.148438 149.707031 1255.390625 149.015625 C 1253.386719 148.246094 1252.625 144.792969 1253.800781 141.878906 Z M 1253.800781 141.878906 "/></g></g></g></g></svg>